<?xml version="1.0" encoding="utf-8"?>
<!-- Svg Vector Icons : http://www.onlinewebfonts.com/icon -->
<!DOCTYPE svg PUBLIC "-//W3C//DTD SVG 1.1//EN" "http://www.w3.org/Graphics/SVG/1.1/DTD/svg11.dtd">
<svg version="1.1" xmlns="http://www.w3.org/2000/svg" xmlns:xlink="http://www.w3.org/1999/xlink" x="0px" y="0px" viewBox="0 0 1000 1000" enable-background="new 0 0 1000 1000" xml:space="preserve">
<metadata> Svg Vector Icons : http://www.onlinewebfonts.com/icon </metadata>
<g><g><path d="M872.2,161.6H127.8C62.8,161.6,10,214.4,10,279.3v441.4c0,64.9,52.8,117.7,117.8,117.7h744.4c64.9,0,117.8-52.8,117.8-117.7V279.3C990,214.4,937.2,161.6,872.2,161.6z M127.8,196.9h744.4c45.5,0,82.5,37,82.5,82.4H45.3C45.3,233.9,82.3,196.9,127.8,196.9z M872.2,803.1H127.8c-45.5,0-82.5-37-82.5-82.4V402.8h909.4v317.9C954.7,766.2,917.7,803.1,872.2,803.1z"/></g><g></g><g></g><g></g><g></g><g></g><g></g><g></g><g></g><g></g><g></g><g></g><g></g><g></g><g></g><g></g></g>
</svg>